<mxfile host="app.diagrams.net" modified="2024-07-23T04:18:04.081Z" agent="Mozilla/5.0 (Macintosh; Intel Mac OS X 10_15_7) AppleWebKit/537.36 (KHTML, like Gecko) Chrome/125.0.0.0 Safari/537.36 Edg/125.0.0.0" version="24.7.3" etag="5l5-7GNGm6iM1bshDbM6" type="github">
  <diagram name="หน้า-1" id="avO0b8HTHaiWJtMcQPv1">
    <mxGraphModel>
      <root>
        <mxCell id="0" />
        <mxCell id="1" parent="0" />
      </root>
    </mxGraphModel>
  </diagram>
</mxfile>
